<svg id="svg" xmlns="http://www.w3.org/2000/svg" xmlns:xlink="http://www.w3.org/1999/xlink" width="400" height="400" viewBox="0, 0, 400,400"><g id="svgg"><path id="path0" d="M89.245 36.923 C 78.631 44.357,80.178 59.239,92.188 65.221 C 109.360 73.775,110.546 84.120,96.414 102.099 C 90.882 109.137,91.043 109.336,106.250 114.201 C 126.589 120.709,157.658 119.814,177.344 112.153 C 187.349 108.260,187.070 108.918,181.652 102.025 C 167.805 84.406,168.524 74.118,184.156 66.189 C 201.799 57.240,198.542 34.375,179.625 34.375 C 168.640 34.375,163.287 40.958,163.284 54.469 C 163.281 64.811,162.976 65.764,158.035 70.862 C 141.411 88.018,113.583 77.113,114.458 53.785 C 115.060 37.742,101.256 28.510,89.245 36.923 M68.446 130.078 C 61.986 142.294,59.808 142.708,41.292 135.242 C 21.240 127.156,12.500 129.176,12.500 141.898 C 12.500 148.933,16.230 151.906,33.415 158.565 C 50.907 165.342,55.464 169.613,54.109 177.958 C 52.337 188.882,48.707 190.625,27.732 190.625 C 7.223 190.625,0.000 194.008,-0.000 203.613 C -0.000 212.947,4.031 214.770,26.557 215.625 C 49.493 216.495,54.688 219.094,54.688 229.701 C 54.688 239.401,51.859 242.168,32.850 251.062 C 9.656 261.914,5.431 268.073,14.773 277.415 C 20.097 282.739,22.847 282.345,43.174 273.347 C 63.448 264.372,64.677 264.422,71.028 274.494 C 89.976 304.542,127.988 321.452,156.476 312.507 C 171.696 307.728,171.624 307.858,164.383 298.229 C 123.684 244.106,135.177 166.817,189.844 127.002 C 194.185 123.840,193.481 123.923,180.301 128.129 C 149.633 137.914,125.847 137.467,93.459 126.497 C 83.416 123.096,74.841 120.313,74.404 120.313 C 73.967 120.313,71.286 124.707,68.446 130.078 M240.887 135.209 C 198.589 144.390,169.553 180.939,169.553 225.000 C 169.553 292.569,236.880 336.093,298.575 308.406 L 308.037 304.160 338.796 334.890 L 369.556 365.621 384.776 350.401 L 399.996 335.181 369.465 304.621 L 338.934 274.062 343.841 263.577 C 375.590 195.730,314.275 119.279,240.887 135.209 M285.336 173.410 C 328.405 194.612,328.457 255.437,285.425 276.525 C 247.754 294.986,203.125 267.045,203.125 225.000 C 203.125 183.032,247.859 154.960,285.336 173.410 " stroke="none" fill="#000000" fill-rule="evenodd"></path></g></svg>