<?xml version="1.0" encoding="utf-8"?><!-- Uploaded to: SVG Repo, www.svgrepo.com, Generator: SVG Repo Mixer Tools -->
<svg fill="#000000" width="800px" height="800px" viewBox="0 0 256 256" id="Flat" xmlns="http://www.w3.org/2000/svg">
  <path d="M224,64H154.667l-27.7334-20.7998A16.10323,16.10323,0,0,0,117.333,40H72A16.01833,16.01833,0,0,0,56,56V72H40A16.01833,16.01833,0,0,0,24,88V200a16.01833,16.01833,0,0,0,16,16H192.88867A15.12831,15.12831,0,0,0,208,200.88867V184h16.88867A15.12831,15.12831,0,0,0,240,168.88867V80A16.01833,16.01833,0,0,0,224,64Zm0,104H208V112a16.01833,16.01833,0,0,0-16-16H122.667L94.93359,75.2002A16.10323,16.10323,0,0,0,85.333,72H72V56h45.333l27.7334,20.7998A16.10323,16.10323,0,0,0,154.667,80H224Z"/>
</svg>