<?xml version="1.0" encoding="utf-8"?><!-- Uploaded to: SVG Repo, www.svgrepo.com, Generator: SVG Repo Mixer Tools -->
<svg fill="#000000" width="800px" height="800px" viewBox="0 0 256 256" id="Flat" xmlns="http://www.w3.org/2000/svg">
  <path d="M216,36.00586H40a20.02229,20.02229,0,0,0-20,20v144a20.02229,20.02229,0,0,0,20,20H216a20.02229,20.02229,0,0,0,20-20v-144A20.02229,20.02229,0,0,0,216,36.00586Zm-4,160H44v-136H212Zm-152-104a16,16,0,1,1,16,16A16.00016,16.00016,0,0,1,60,92.00586Zm48,0a16,16,0,1,1,16,16A16.00016,16.00016,0,0,1,108,92.00586Z"/>
</svg>