<?xml version="1.0" encoding="utf-8"?><!-- Uploaded to: SVG Repo, www.svgrepo.com, Generator: SVG Repo Mixer Tools -->
<svg width="800px" height="800px" viewBox="0 0 24 24" fill="none" xmlns="http://www.w3.org/2000/svg">
<path d="M4 18V6" stroke="#1C274C" stroke-width="1.5" stroke-linecap="round"/>
<path d="M20 6V18" stroke="#1C274C" stroke-width="1.5" stroke-linecap="round"/>
<path d="M12 10C16.4183 10 20 8.20914 20 6C20 3.79086 16.4183 2 12 2C7.58172 2 4 3.79086 4 6C4 8.20914 7.58172 10 12 10Z" stroke="#1C274C" stroke-width="1.5"/>
<path d="M20 12C20 14.2091 16.4183 16 12 16C7.58172 16 4 14.2091 4 12" stroke="#1C274C" stroke-width="1.5"/>
<path d="M20 18C20 20.2091 16.4183 22 12 22C7.58172 22 4 20.2091 4 18" stroke="#1C274C" stroke-width="1.5"/>
</svg>