<?xml version="1.0" encoding="utf-8"?><!-- Uploaded to: SVG Repo, www.svgrepo.com, Generator: SVG Repo Mixer Tools -->
<svg fill="#000000" width="800px" height="800px" viewBox="0 0 256 256" id="Flat" xmlns="http://www.w3.org/2000/svg">
  <path d="M221.59668,173.31348A103.97882,103.97882,0,0,0,154.84473,27.51953c-.18018-.05615-.36231-.10449-.5459-.14795A103.90813,103.90813,0,0,0,60.3916,49.041a7.94439,7.94439,0,0,0-1.33545,1.168A103.94993,103.94993,0,0,0,128,232c.73584,0,1.46875-.0127,2.20117-.02783.01807,0,.03613.00244.05371.00244.03516,0,.06885-.00391.10352-.0044A104.12933,104.12933,0,0,0,220.96387,174.585l.01465-.02148A7.967,7.967,0,0,0,221.59668,173.31348ZM216,128a87.57766,87.57766,0,0,1-5.53125,30.70654L164.06836,130.168a15.90244,15.90244,0,0,0-6.24365-2.22656l-22.81836-3.07618a16.10781,16.10781,0,0,0-15.32178,6.81446h-8.543l-3.80469-7.86035A16.00216,16.00216,0,0,0,96.295,115.14608l-6.5655-1.41073,2.51745-5.97658a8,8,0,0,1,7.37265-4.89451H115.6543a16.02745,16.02745,0,0,0,7.73437-1.99414l12.24317-6.76074a16.03672,16.03672,0,0,0,2.99609-2.1377l26.91064-24.33789a15.90675,15.90675,0,0,0,4.4336-16.96289A88.07506,88.07506,0,0,1,216,128ZM40,128a87.46223,87.46223,0,0,1,9.46094-39.665l10.42334,27.82031a15.93042,15.93042,0,0,0,11.6206,10.02735l5.5127,1.18506.04541.00976,12.05371,2.591a8,8,0,0,1,5.51942,4.33553l2.10451,4.34726a16.00022,16.00022,0,0,0,14.40146,9.02849H112.251l-7.69532,17.26758a15.98365,15.98365,0,0,0,2.86622,17.375l16.05,17.36021a8,8,0,0,1,1.98025,6.95l-1.791,9.25958A88.10889,88.10889,0,0,1,40,128Z"/>
</svg>