<?xml version="1.0" encoding="utf-8"?>

<!DOCTYPE svg PUBLIC "-//W3C//DTD SVG 1.1//EN" "http://www.w3.org/Graphics/SVG/1.1/DTD/svg11.dtd">
<!-- Uploaded to: SVG Repo, www.svgrepo.com, Generator: SVG Repo Mixer Tools -->
<svg fill="#000000" version="1.1" id="Layer_1" xmlns="http://www.w3.org/2000/svg" xmlns:xlink="http://www.w3.org/1999/xlink" 
	 width="800px" height="800px" viewBox="796 729.37 200 200" enable-background="new 796 729.37 200 200" xml:space="preserve">
<path d="M947.232,737.06c-26.891,0-48.769,21.876-48.769,48.769v21.623h-83.855c-10.277,0-18.609,8.332-18.609,18.609v57.775
	c0,20.9,16.943,37.844,37.843,37.844h66.979c20.9,0,37.843-16.943,37.843-37.844V826.06c0-10.277-8.331-18.609-18.608-18.609h-3.955
	v-21.623c0-17.166,13.965-31.131,31.131-31.131c17.165,0,31.131,13.965,31.131,31.131v31.413c0,4.871,3.947,8.819,8.817,8.819
	s8.819-3.949,8.819-8.819v-31.413C996,758.937,974.123,737.06,947.232,737.06z M873.933,865.427v23.546
	c0,3.836-3.109,6.942-6.942,6.942c-3.833,0-6.942-3.107-6.942-6.942v-23.546c-5.288-2.578-8.94-7.99-8.94-14.269
	c0-8.772,7.111-15.883,15.882-15.883c8.772,0,15.884,7.11,15.884,15.883C882.875,857.437,879.22,862.85,873.933,865.427z"/>
</svg>