<?xml version="1.0" encoding="utf-8"?><!-- Uploaded to: SVG Repo, www.svgrepo.com, Generator: SVG Repo Mixer Tools -->
<svg fill="#000000" width="800px" height="800px" viewBox="0 0 256 256" id="Flat" xmlns="http://www.w3.org/2000/svg">
  <path d="M120.48535,167.51465a11.99975,11.99975,0,0,1,0,16.9707l-32,32c-.01855.01856-.03906.03418-.0581.05274-.26221.2583-.53418.50634-.81885.74023-.148.12109-.30322.227-.45508.33984-.16211.1211-.31982.24659-.48828.35938-.17627.11767-.35889.22021-.54.32812-.15527.09229-.30664.19-.4668.27539-.18261.09766-.37011.18067-.55615.26807-.16943.08008-.33545.16455-.50879.23633-.18017.07422-.36377.13428-.5459.19971-.187.06738-.37158.13867-.5625.19677-.18213.05518-.36767.09571-.55175.14209-.19532.04883-.38868.104-.5879.14356-.21093.0415-.42334.0664-.63574.09668-.17529.02539-.34765.05859-.52539.07617C80.79,219.979,80.395,220,80,220s-.79-.021-1.18408-.05957c-.17774-.01758-.35059-.05078-.52588-.07617-.21192-.03028-.42481-.05518-.63477-.09668-.1997-.03955-.39306-.09473-.58886-.144-.18409-.0459-.36914-.08643-.55127-.14161-.19092-.05761-.375-.12939-.56153-.19629-.1831-.06543-.3667-.126-.54687-.20019-.17334-.07178-.33887-.15625-.50781-.23584-.18653-.0874-.37452-.17041-.55713-.26856-.16016-.08544-.3125-.18359-.46826-.27636-.18018-.10742-.3628-.20948-.53858-.32715-.16846-.11328-.32715-.23926-.48975-.36035-.15136-.1128-.30615-.21826-.45361-.33887-.28467-.23389-.55664-.48193-.81885-.74023-.019-.01856-.03955-.03418-.0581-.05274l-32-32a12.0001,12.0001,0,0,1,16.9707-16.9707L68,179.0293V48a12,12,0,0,1,24,0V179.0293l11.51465-11.51465A12.00062,12.00062,0,0,1,120.48535,167.51465Zm96-96-32-32c-.01855-.01856-.03906-.03418-.0581-.05274-.26221-.2583-.53418-.50634-.81885-.74023-.14795-.12109-.30322-.227-.45508-.33984-.16211-.1211-.31982-.24659-.48828-.35938-.17578-.11719-.35791-.21973-.53809-.32666-.15625-.09326-.30859-.19141-.46924-.27734-.18164-.09717-.36865-.17969-.55371-.26709-.16992-.08008-.33691-.16455-.51074-.23682-.1792-.07422-.36279-.13428-.54443-.19922-.1875-.06738-.37305-.13916-.56494-.19775-.17969-.0542-.36231-.09375-.54395-.13965-.19824-.04981-.394-.10547-.59619-.14551-.20508-.04053-.4126-.06445-.61963-.09472-.18066-.02588-.3584-.06006-.5415-.07813q-.56763-.05566-1.13819-.05713C176.0293,36.002,176.01514,36,176,36s-.0293.002-.04443.00244q-.56983.0022-1.13819.05713c-.18359.01807-.36133.05225-.542.07813-.207.03027-.41406.05419-.61914.09472-.20215.04-.39844.0957-.59668.14551-.18164.0459-.36377.08545-.54346.13965-.19189.05859-.37695.13037-.56445.19775-.18213.06494-.36523.125-.54492.19922-.17383.07227-.34033.15674-.50977.23682-.18554.08691-.37256.16992-.55468.26709-.16114.08642-.314.18457-.47022.27783-.17969.10693-.36182.209-.53711.32617-.16846.11328-.32715.23926-.48975.36035-.15136.1128-.30615.21778-.45361.33887-.28467.23389-.55664.48193-.81885.74023-.019.01856-.03955.03418-.0581.05274l-32,32a12.0001,12.0001,0,0,0,16.9707,16.9707L164,76.9707V208a12,12,0,0,0,24,0V76.9707l11.51465,11.51465a12.0001,12.0001,0,0,0,16.9707-16.9707Z"/>
</svg>