<?xml version="1.0" encoding="utf-8"?>

<!-- Uploaded to: SVG Repo, www.svgrepo.com, Generator: SVG Repo Mixer Tools -->
<svg version="1.1" id="Icons" xmlns="http://www.w3.org/2000/svg" xmlns:xlink="http://www.w3.org/1999/xlink" 
	 viewBox="0 0 32 32" xml:space="preserve">
<style type="text/css">
	.st0{fill:none;stroke:#000000;stroke-width:2;stroke-linecap:round;stroke-linejoin:round;stroke-miterlimit:10;}
</style>
<path d="M24,16c-4.4,0-8,3.6-8,8s3.6,8,8,8s8-3.6,8-8S28.4,16,24,16z M27.7,24.8c-0.2,0.2-0.4,0.3-0.7,0.3c-0.3,0-0.5-0.1-0.7-0.3
	L25,23.5V28c0,0.6-0.4,1-1,1s-1-0.4-1-1v-4.5l-1.3,1.3c-0.4,0.4-1,0.4-1.4,0c-0.4-0.4-0.4-1,0-1.4l3-3.1c0,0,0,0,0,0
	c0.2-0.2,0.4-0.3,0.7-0.3s0.5,0.1,0.7,0.3c0,0,0,0,0,0l3,3.1C28.1,23.8,28.1,24.4,27.7,24.8z"/>
<g>
	<polygon points="17,2.6 17,8 22.4,8 	"/>
	<path d="M20.5,10H16c-0.6,0-1-0.4-1-1V2H4C3.4,2,3,2.4,3,3v26c0,0.6,0.4,1,1,1h12c-1.3-1.7-2-3.7-2-6c0-5.2,4-9.4,9-9.9v-1.6
		C23,11.1,21.9,10,20.5,10z"/>
</g>
</svg>